<mxfile host="app.diagrams.net" agent="Mozilla/5.0 (Windows NT 10.0; Win64; x64) AppleWebKit/537.36 (KHTML, like Gecko) Chrome/132.0.0.0 Safari/537.36 Edg/132.0.0.0" version="26.2.14">
  <diagram id="C5RBs43oDa-KdzZeNtuy" name="Page-1">
    <mxGraphModel dx="713" dy="393" grid="1" gridSize="10" guides="1" tooltips="1" connect="1" arrows="1" fold="1" page="1" pageScale="1" pageWidth="827" pageHeight="1169" math="0" shadow="0">
      <root>
        <mxCell id="WIyWlLk6GJQsqaUBKTNV-0" />
        <mxCell id="WIyWlLk6GJQsqaUBKTNV-1" parent="WIyWlLk6GJQsqaUBKTNV-0" />
        <mxCell id="C-5hD9X58X1ERZTdh1ZZ-2" value="" style="edgeStyle=orthogonalEdgeStyle;rounded=0;orthogonalLoop=1;jettySize=auto;html=1;" edge="1" parent="WIyWlLk6GJQsqaUBKTNV-1" source="C-5hD9X58X1ERZTdh1ZZ-0" target="C-5hD9X58X1ERZTdh1ZZ-1">
          <mxGeometry relative="1" as="geometry" />
        </mxCell>
        <mxCell id="C-5hD9X58X1ERZTdh1ZZ-0" value="公式图像" style="rounded=0;whiteSpace=wrap;html=1;" vertex="1" parent="WIyWlLk6GJQsqaUBKTNV-1">
          <mxGeometry x="200" y="90" width="120" height="60" as="geometry" />
        </mxCell>
        <mxCell id="C-5hD9X58X1ERZTdh1ZZ-4" value="" style="edgeStyle=orthogonalEdgeStyle;rounded=0;orthogonalLoop=1;jettySize=auto;html=1;" edge="1" parent="WIyWlLk6GJQsqaUBKTNV-1" source="C-5hD9X58X1ERZTdh1ZZ-1" target="C-5hD9X58X1ERZTdh1ZZ-3">
          <mxGeometry relative="1" as="geometry" />
        </mxCell>
        <mxCell id="C-5hD9X58X1ERZTdh1ZZ-1" value="DeepSeek-VL模型转化为标准化LaTeX表达式" style="whiteSpace=wrap;html=1;rounded=0;" vertex="1" parent="WIyWlLk6GJQsqaUBKTNV-1">
          <mxGeometry x="200" y="230" width="120" height="60" as="geometry" />
        </mxCell>
        <mxCell id="C-5hD9X58X1ERZTdh1ZZ-6" value="" style="edgeStyle=orthogonalEdgeStyle;rounded=0;orthogonalLoop=1;jettySize=auto;html=1;" edge="1" parent="WIyWlLk6GJQsqaUBKTNV-1" source="C-5hD9X58X1ERZTdh1ZZ-3" target="C-5hD9X58X1ERZTdh1ZZ-5">
          <mxGeometry relative="1" as="geometry" />
        </mxCell>
        <mxCell id="C-5hD9X58X1ERZTdh1ZZ-3" value="标准化LaTeX表达式" style="whiteSpace=wrap;html=1;rounded=0;" vertex="1" parent="WIyWlLk6GJQsqaUBKTNV-1">
          <mxGeometry x="200" y="370" width="120" height="60" as="geometry" />
        </mxCell>
        <mxCell id="C-5hD9X58X1ERZTdh1ZZ-8" value="" style="edgeStyle=orthogonalEdgeStyle;rounded=0;orthogonalLoop=1;jettySize=auto;html=1;" edge="1" parent="WIyWlLk6GJQsqaUBKTNV-1" source="C-5hD9X58X1ERZTdh1ZZ-5" target="C-5hD9X58X1ERZTdh1ZZ-7">
          <mxGeometry relative="1" as="geometry" />
        </mxCell>
        <mxCell id="C-5hD9X58X1ERZTdh1ZZ-5" value="DeepSeek-R1模型语义理解与逆推" style="whiteSpace=wrap;html=1;rounded=0;" vertex="1" parent="WIyWlLk6GJQsqaUBKTNV-1">
          <mxGeometry x="370" y="370" width="120" height="60" as="geometry" />
        </mxCell>
        <mxCell id="C-5hD9X58X1ERZTdh1ZZ-10" value="" style="edgeStyle=orthogonalEdgeStyle;rounded=0;orthogonalLoop=1;jettySize=auto;html=1;" edge="1" parent="WIyWlLk6GJQsqaUBKTNV-1" source="C-5hD9X58X1ERZTdh1ZZ-7" target="C-5hD9X58X1ERZTdh1ZZ-9">
          <mxGeometry relative="1" as="geometry" />
        </mxCell>
        <mxCell id="C-5hD9X58X1ERZTdh1ZZ-7" value="公式语义特征" style="whiteSpace=wrap;html=1;rounded=0;" vertex="1" parent="WIyWlLk6GJQsqaUBKTNV-1">
          <mxGeometry x="540" y="370" width="120" height="60" as="geometry" />
        </mxCell>
        <mxCell id="C-5hD9X58X1ERZTdh1ZZ-12" value="" style="edgeStyle=orthogonalEdgeStyle;rounded=0;orthogonalLoop=1;jettySize=auto;html=1;" edge="1" parent="WIyWlLk6GJQsqaUBKTNV-1" source="C-5hD9X58X1ERZTdh1ZZ-9" target="C-5hD9X58X1ERZTdh1ZZ-11">
          <mxGeometry relative="1" as="geometry" />
        </mxCell>
        <mxCell id="C-5hD9X58X1ERZTdh1ZZ-9" value="公式相似度分析" style="whiteSpace=wrap;html=1;rounded=0;" vertex="1" parent="WIyWlLk6GJQsqaUBKTNV-1">
          <mxGeometry x="540" y="230" width="120" height="60" as="geometry" />
        </mxCell>
        <mxCell id="C-5hD9X58X1ERZTdh1ZZ-11" value="输出公式重复度" style="whiteSpace=wrap;html=1;rounded=0;" vertex="1" parent="WIyWlLk6GJQsqaUBKTNV-1">
          <mxGeometry x="540" y="90" width="120" height="60" as="geometry" />
        </mxCell>
      </root>
    </mxGraphModel>
  </diagram>
</mxfile>
